<?xml version="1.0" standalone="no"?>
<!DOCTYPE svg PUBLIC "-//W3C//DTD SVG 20010904//EN"
 "http://www.w3.org/TR/2001/REC-SVG-20010904/DTD/svg10.dtd">
<svg version="1.0" xmlns="http://www.w3.org/2000/svg"
 width="512.000000pt" height="512.000000pt" viewBox="0 0 512.000000 512.000000"
 preserveAspectRatio="xMidYMid meet">
<metadata>
Created by potrace 1.14, written by Peter Selinger 2001-2017
</metadata>
<g transform="translate(0.000000,512.000000) scale(0.100000,-0.100000)"
fill="#000000" stroke="none">
<path d="M895 5106 c-98 -31 -169 -97 -204 -190 l-21 -57 0 -2299 0 -2299 21
-58 c28 -72 94 -144 162 -174 l52 -24 1655 0 1655 0 52 24 c68 30 134 102 162
174 l21 58 -1 1947 0 1947 -445 483 -446 482 -1311 -1 c-1029 0 -1321 -3
-1352 -13z m2475 -644 c0 -366 1 -400 18 -431 38 -70 44 -71 444 -71 l358 0 0
-1828 c0 -1563 -2 -1831 -14 -1848 -14 -19 -42 -19 -1616 -19 -1574 0 -1602 0
-1616 19 -12 17 -14 343 -14 2276 0 2355 -1 2278 40 2293 8 3 552 6 1208 6
l1192 1 0 -398z m466 -32 l189 -205 -185 -3 c-101 -1 -190 0 -197 2 -10 4 -13
53 -13 212 0 113 4 204 9 202 4 -1 93 -95 197 -208z"/>
<path d="M1354 3704 c-73 -36 -71 -135 3 -173 16 -8 341 -11 1158 -11 1223 0
1177 -2 1205 49 27 52 1 122 -52 140 -21 8 -379 11 -1157 11 -993 0 -1130 -2
-1157 -16z"/>
<path d="M1329 3021 c-21 -22 -29 -39 -29 -66 0 -27 8 -44 29 -66 l29 -29
1155 0 1155 0 31 26 c42 35 44 95 4 136 l-27 28 -1159 0 -1159 0 -29 -29z"/>
<path d="M1329 2381 c-40 -40 -40 -89 0 -133 l29 -33 1119 -3 c615 -2 1137 0
1160 3 89 13 125 105 64 166 l-29 29 -1157 0 -1157 0 -29 -29z"/>
<path d="M1360 1749 c-81 -32 -79 -150 2 -178 21 -8 379 -11 1155 -11 1203 0
1176 -1 1202 48 6 12 11 35 11 52 0 17 -5 40 -11 52 -26 49 2 48 -1206 47
-712 0 -1137 -4 -1153 -10z"/>
</g>
</svg>
